<svg xmlns="http://www.w3.org/2000/svg" viewBox="0 0 64 64">
  <rect width="64" height="64" rx="14" fill="#02140f"/>
  <circle cx="32" cy="32" r="27" fill="#063927" stroke="#d0a948" stroke-width="4"/>
  <circle cx="32" cy="32" r="18" fill="#f5e8c6" stroke="#02140f" stroke-width="3"/>
  <path d="M20 18h12c6 0 10 3 10 8 0 4-2 6-6 8l-8 4c-2 1-3 2-3 4h18v7H20c0-8 3-12 10-15l5-2c3-1 4-3 4-5 0-2-2-4-6-4H20v-5z" fill="#02140f"/>
  <path d="M44 15l5 5-16 16-5-5 16-16z" fill="#be1412" stroke="#02140f" stroke-width="2"/>
  <path d="M48 11l5 5-5 4-4-4 4-5z" fill="#f5e8c6" stroke="#02140f" stroke-width="2"/>
  <circle cx="32" cy="32" r="4" fill="#be1412" stroke="#02140f" stroke-width="2"/>
</svg>
